<?xml version="1.0" standalone="no"?>
<!DOCTYPE svg PUBLIC "-//W3C//DTD SVG 20010904//EN"
 "http://www.w3.org/TR/2001/REC-SVG-20010904/DTD/svg10.dtd">
<svg version="1.0" xmlns="http://www.w3.org/2000/svg"
 width="500.000000pt" height="500.000000pt" viewBox="0 0 500.000000 500.000000"
 preserveAspectRatio="xMidYMid meet">
<metadata>
Created by potrace 1.16, written by Peter Selinger 2001-2019
</metadata>
<g transform="translate(0.000000,500.000000) scale(0.100000,-0.100000)"
fill="#000000" stroke="none">
<path d="M1788 2808 c-3 -634 -3 -644 -25 -690 -11 -25 -33 -54 -47 -63 -62
-41 -169 -41 -228 -1 -48 32 -70 78 -76 157 l-5 69 -273 0 -274 0 0 -70 c0
-168 59 -328 158 -429 163 -165 458 -231 817 -180 39 5 178 10 310 12 l240 2
-2 560 c0 308 1 556 3 550 2 -5 69 -248 149 -540 80 -291 150 -540 155 -553
l10 -23 227 3 227 3 166 610 c92 336 169 617 172 625 11 26 8 -18 -8 -150 -11
-90 -17 -257 -21 -602 l-5 -476 63 -7 c35 -3 168 -5 294 -3 l230 3 3 918 2
917 -404 0 -405 0 -9 -32 c-5 -18 -66 -257 -137 -531 -71 -273 -132 -494 -136
-490 -4 5 -66 235 -139 513 -72 278 -133 513 -136 523 -5 16 -35 17 -449 17
l-444 0 -3 -642z"/>
</g>
</svg>
